<?xml version="1.0" encoding="UTF-8"?> <svg xmlns="http://www.w3.org/2000/svg" width="186" height="186" viewBox="0 0 186 186" fill="none"> <path d="M166.648 92.4525L166.448 94.6032L171.225 96.3723L170.46 104.617L165.439 105.477L165.239 107.627L182.367 104.878L182.977 98.3066L166.648 92.4525ZM173.212 97.0388L180.79 99.7909L180.491 103.017L172.536 104.327L173.212 97.0388Z" fill="black"></path> <path d="M165.012 107.919L162.739 115.505C161.664 119.092 163.04 121.608 165.683 122.401C167.339 122.897 168.532 122.427 169.281 121.85C169.711 121.503 170.092 121.066 170.372 120.549L170.487 120.583C170.517 121.068 170.637 121.505 170.833 121.939C171.189 122.673 171.868 123.502 173.247 123.916C175.546 124.605 177.936 123.316 178.797 120.443L181.105 112.741L165.012 107.919ZM173.703 112.778L178.531 114.225L176.878 119.742C176.354 121.489 175.016 122.191 173.637 121.778C172.258 121.364 171.526 120.043 172.05 118.295L173.703 112.778ZM166.347 110.573L171.749 112.192L170.096 117.71C169.407 120.009 167.936 120.821 166.304 120.332C164.809 119.884 164.004 118.39 164.693 116.091L166.347 110.573Z" fill="black"></path> <path d="M168.401 125.454C163.901 122.928 158.848 124.33 156.37 128.746C153.903 133.141 155.326 138.206 159.826 140.731C164.325 143.257 169.39 141.834 171.857 137.439C174.336 133.023 172.901 127.979 168.401 125.454ZM167.344 127.337C170.923 129.346 171.958 133.092 170.078 136.44C168.198 139.789 164.462 140.857 160.883 138.848C157.304 136.839 156.269 133.093 158.149 129.745C160.028 126.396 163.765 125.328 167.344 127.337Z" fill="black"></path> <path d="M156.354 141.582C153.237 138.767 149.492 138.975 146.854 141.896C144.216 144.817 144.39 148.564 147.507 151.379L155.255 158.376L156.703 156.773L148.955 149.776C146.728 147.765 146.615 145.205 148.368 143.263C150.121 141.322 152.68 141.175 154.906 143.185L162.654 150.183L164.102 148.58L156.354 141.582Z" fill="black"></path> <path d="M151.473 159.019L146.916 162.542L137.889 150.864L136.18 152.185L145.207 163.863L140.65 167.386L141.898 169L152.721 160.633L151.473 159.019Z" fill="black"></path> <path d="M130.218 163.683C128.553 159.827 125.06 158.459 121.447 160.02C117.833 161.58 116.434 165.06 118.099 168.916L122.238 178.5L124.221 177.644L120.082 168.059C118.893 165.305 119.854 162.93 122.256 161.892C124.657 160.855 127.045 161.785 128.235 164.539L132.373 174.124L134.356 173.268L130.218 163.683Z" fill="black"></path> <path d="M115.63 168.046C115.212 167.129 114.65 166.341 113.926 165.711C112.711 164.622 110.697 163.704 107.717 164.343C103.728 165.199 101.977 167.907 102.531 170.488C103.145 173.351 105.926 173.957 108.63 174.089C111.371 174.163 114.028 174.305 114.425 176.159C114.727 177.567 113.714 179.134 111.25 179.663C109.443 180.051 108.27 179.615 107.5 179.118C107.062 178.794 106.714 178.427 106.472 177.988L104.36 178.441C104.753 179.241 105.266 179.916 105.928 180.486C107.067 181.444 108.909 182.252 111.678 181.658C115.315 180.877 117.066 178.17 116.537 175.706C115.757 172.068 111.622 172.244 108.46 172.039C106.542 171.91 104.96 171.513 104.643 170.035C104.315 168.51 105.329 166.942 108.145 166.338C110.14 165.91 111.474 166.409 112.331 167.084C112.83 167.468 113.228 167.947 113.518 168.499L115.63 168.046Z" fill="black"></path> <path d="M95.7129 166.636L93.556 166.519L91.9723 171.361L83.7044 170.914L82.6519 165.93L80.4951 165.813L83.9017 182.822L90.492 183.178L95.7129 166.636ZM91.3828 173.372L88.9246 181.05L85.6894 180.876L84.0735 172.977L91.3828 173.372Z" fill="black"></path> <path d="M80.2758 165.593L72.6084 163.608C68.9838 162.67 66.521 164.14 65.8295 166.812C65.3965 168.485 65.9107 169.659 66.5159 170.386C66.8792 170.802 67.3302 171.167 67.8578 171.428L67.8277 171.544C67.3441 171.592 66.9123 171.728 66.4856 171.94C65.7664 172.324 64.963 173.033 64.6023 174.428C64.0009 176.751 65.3786 179.091 68.2829 179.842L76.0665 181.857L80.2758 165.593ZM75.7493 174.462L74.4865 179.341L68.9102 177.898C67.1444 177.441 66.3927 176.13 66.7535 174.736C67.1143 173.342 68.4072 172.561 70.173 173.018L75.7493 174.462ZM77.6735 167.026L76.2604 172.487L70.6841 171.043C68.3607 170.442 67.4936 169.003 67.9206 167.353C68.3114 165.843 69.7738 164.982 72.0973 165.583L77.6735 167.026Z" fill="black"></path> <path d="M62.8349 169.626C65.1926 165.036 63.6047 160.038 59.1002 157.724C54.617 155.422 49.6083 157.031 47.2507 161.621C44.893 166.211 46.5023 171.219 50.9855 173.522C55.49 175.836 60.4773 174.216 62.8349 169.626ZM60.9136 168.639C59.0384 172.289 55.3333 173.462 51.9176 171.708C48.5018 169.953 47.2969 166.258 49.172 162.608C51.0472 158.957 54.7523 157.784 58.1681 159.539C61.5838 161.294 62.7888 164.988 60.9136 168.639Z" fill="black"></path> <path d="M46.393 158.256C49.081 155.029 48.7237 151.295 45.6994 148.776C42.6751 146.257 38.9386 146.581 36.2505 149.808L29.5688 157.83L31.2285 159.212L37.9102 151.19C39.8302 148.885 42.3838 148.669 44.3938 150.344C46.4038 152.018 46.6533 154.568 44.7333 156.874L38.0516 164.895L39.7112 166.278L46.393 158.256Z" fill="black"></path> <path d="M28.8071 154.079L25.1045 149.667L36.4112 140.179L35.0227 138.525L23.7161 148.012L20.0135 143.6L18.4508 144.911L27.2444 155.391L28.8071 154.079Z" fill="black"></path> <path d="M23.3531 133.086C27.1376 131.264 28.3612 127.719 26.6543 124.172C24.9473 120.626 21.4132 119.37 17.6287 121.192L8.22151 125.719L9.15822 127.665L18.5654 123.138C21.2687 121.837 23.6816 122.7 24.8161 125.057C25.9505 127.414 25.1196 129.839 22.4164 131.14L13.0092 135.667L13.9459 137.613L23.3531 133.086Z" fill="black"></path> <path d="M18.3916 118.704C19.2919 118.252 20.0576 117.661 20.6596 116.913C21.7018 115.657 22.5424 113.61 21.79 110.656C20.7827 106.703 18.0104 105.056 15.4522 105.708C12.6148 106.431 12.1151 109.233 12.0864 111.94C12.1162 114.681 12.0757 117.342 10.2384 117.81C8.84293 118.165 7.23792 117.212 6.6158 114.77C6.15957 112.979 6.55008 111.79 7.01805 111.002C7.32454 110.552 7.678 110.19 8.10759 109.932L7.57434 107.839C6.79041 108.261 6.13506 108.8 5.59095 109.483C4.6765 110.657 3.93979 112.529 4.63894 115.273C5.55731 118.878 8.32961 120.525 10.7716 119.903C14.3765 118.984 14.0437 114.859 14.1285 111.692C14.1839 109.771 14.5202 108.174 15.9854 107.801C17.4971 107.416 19.1021 108.369 19.8131 111.16C20.3167 113.137 19.8688 114.489 19.2266 115.371C18.8622 115.885 18.3984 116.3 17.8584 116.611L18.3916 118.704Z" fill="black"></path> <path d="M19.0051 98.8699L19.0385 96.7102L14.1395 95.3144L14.2673 87.0354L19.2071 85.7915L19.2404 83.6317L2.37575 87.6918L2.27385 94.2911L19.0051 98.8699ZM12.1071 94.8029L4.33954 92.6428L4.38957 89.4031L12.2201 87.4838L12.1071 94.8029Z" fill="black"></path> <path d="M19.4111 83.4706L21.0728 75.7269C21.8583 72.0662 20.2867 69.6671 17.5882 69.088C15.8986 68.7255 14.7469 69.2883 14.046 69.9234C13.6453 70.3038 13.2999 70.7697 13.0617 71.3077L12.9444 71.2825C12.8758 70.8014 12.7217 70.3756 12.4922 69.9582C12.0783 69.2557 11.336 68.4828 9.92803 68.1806C7.58145 67.6771 5.30135 69.1515 4.67191 72.0847L2.98502 79.9458L19.4111 83.4706ZM10.3606 79.3193L5.43281 78.2619L6.64133 72.6301C7.02403 70.8467 8.30155 70.0408 9.7095 70.3429C11.1174 70.645 11.9518 71.9041 11.5691 73.6875L10.3606 79.3193ZM17.8697 80.9307L12.3552 79.7473L13.5637 74.1155C14.0673 71.769 15.4689 70.8424 17.135 71.1999C18.6602 71.5272 19.5818 72.9523 19.0782 75.2989L17.8697 80.9307Z" fill="black"></path> <path d="M14.7448 65.8687C19.419 68.0545 24.3544 66.2822 26.4995 61.695C28.6344 57.1295 26.8404 52.1839 22.1662 49.9982C17.492 47.8124 12.5464 49.6064 10.4115 54.1719C8.26645 58.7592 10.0706 63.683 14.7448 65.8687ZM15.6598 63.9121C11.9422 62.1736 10.6329 58.5145 12.2595 55.0361C13.8861 51.5576 17.5336 50.2164 21.2512 51.9548C24.9688 53.6933 26.2781 57.3524 24.6515 60.8308C23.0249 64.3093 19.3774 65.6505 15.6598 63.9121Z" fill="black"></path> <path d="M25.4638 49.0145C28.7866 51.5832 32.5046 51.0902 34.9119 47.9761C37.3192 44.8621 36.8598 41.1398 33.5369 38.5711L25.2772 32.1859L23.9561 33.8949L32.2159 40.28C34.5893 42.1148 34.8979 44.6588 33.2979 46.7285C31.698 48.7981 29.1583 49.1403 26.7848 47.3055L18.5251 40.9204L17.204 42.6293L25.4638 49.0145Z" fill="black"></path> <path d="M28.9938 31.2525L33.2686 27.3919L43.1612 38.3461L44.7643 36.8983L34.8716 25.9442L39.1464 22.0837L37.7791 20.5697L27.6265 29.7385L28.9938 31.2525Z" fill="black"></path> <path d="M49.6416 25.0713C51.602 28.7857 55.1902 29.877 58.6712 28.0399C62.1521 26.2027 63.2759 22.6245 61.3155 18.9101L56.4426 9.67709L54.5323 10.6853L59.4052 19.9183C60.8055 22.5714 60.0325 25.0147 57.719 26.2357C55.4054 27.4568 52.9521 26.7162 51.5519 24.0631L46.6789 14.8301L44.7687 15.8383L49.6416 25.0713Z" fill="black"></path> <path d="M63.8045 19.5419C64.2905 20.4243 64.9105 21.1671 65.6805 21.7403C66.9753 22.7341 69.0526 23.4966 71.9756 22.6327C75.8883 21.4763 77.4286 18.6436 76.6803 16.1118C75.8504 13.3039 73.0314 12.9108 70.3254 12.9848C67.587 13.1184 64.927 13.1788 64.3896 11.3605C63.9815 9.9796 64.8732 8.3396 67.2899 7.62536C69.0621 7.10158 70.2653 7.44672 71.0704 7.88448C71.5312 8.17372 71.9069 8.51318 72.181 8.93268L74.2524 8.32047C73.8004 7.55312 73.2375 6.91865 72.5339 6.40084C71.326 5.53155 69.4276 4.86634 66.7117 5.66901C63.1442 6.72337 61.604 9.5561 62.3182 11.9728C63.3726 15.5402 67.4825 15.0513 70.6504 15.0159C72.5723 14.9985 74.1803 15.2741 74.6089 16.724C75.051 18.2201 74.1593 19.8601 71.3974 20.6764C69.441 21.2546 68.0726 20.8582 67.167 20.2499C66.6397 19.9052 66.2071 19.4575 65.8759 18.9297L63.8045 19.5419Z" fill="black"></path> <path d="M83.6721 19.3645L85.8315 19.3145L87.0372 14.3653L95.315 14.1735L96.7485 19.0616L98.908 19.0116L94.2001 2.31616L87.6019 2.46899L83.6721 19.3645ZM87.4698 12.3147L89.3286 4.46954L92.5678 4.39451L94.7879 12.1452L87.4698 12.3147Z" fill="black"></path> <path d="M99 19.1456L106.802 20.5103C110.49 21.1555 112.827 19.4933 113.302 16.7746C113.6 15.0725 112.994 13.9431 112.332 13.267C111.937 12.8811 111.458 12.5537 110.911 12.3363L110.932 12.218C111.41 12.1311 111.83 11.9609 112.238 11.7156C112.924 11.2752 113.668 10.5039 113.917 9.08543C114.33 6.72133 112.77 4.49922 109.815 3.98229L101.895 2.59693L99 19.1456ZM102.803 9.94322L103.671 4.9786L109.345 5.9711C111.142 6.28539 111.996 7.5312 111.748 8.94966C111.499 10.3681 110.273 11.25 108.476 10.9357L102.803 9.94322ZM101.479 17.5083L102.451 11.9527L108.125 12.9452C110.489 13.3587 111.468 14.7239 111.175 16.4024C110.906 17.9391 109.517 18.9144 107.153 18.5008L101.479 17.5083Z" fill="black"></path> <path d="M116.224 13.7049C114.231 18.4647 116.205 23.3233 120.876 25.2786C125.525 27.2246 130.393 25.2294 132.385 20.4695C134.378 15.7097 132.382 10.8418 127.733 8.89582C123.062 6.94056 118.216 8.94503 116.224 13.7049ZM118.216 14.5389C119.801 10.7531 123.403 9.29497 126.945 10.7776C130.488 12.2603 131.977 15.8498 130.393 19.6355C128.808 23.4213 125.206 24.8794 121.664 23.3968C118.121 21.9141 116.632 18.3246 118.216 14.5389Z" fill="black"></path> <path d="M133.599 23.737C131.166 27.1604 131.808 30.8556 135.016 33.1359C138.224 35.4162 141.925 34.8078 144.358 31.3844L150.407 22.875L148.646 21.6236L142.598 30.1331C140.86 32.5783 138.33 32.9887 136.198 31.4731C134.066 29.9575 133.622 27.4337 135.36 24.9884L141.408 16.479L139.648 15.2276L133.599 23.737Z" fill="black"></path> <path d="M151.534 26.5617L155.562 30.6788L145.012 41.0014L146.523 42.5453L157.073 32.2227L161.101 36.3398L162.56 34.9131L152.992 25.1351L151.534 26.5617Z" fill="black"></path> <path d="M158.823 47.3459C155.184 49.4421 154.226 53.0682 156.19 56.4789C158.155 59.8897 161.772 60.8806 165.411 58.7845L174.458 53.5741L173.38 51.7023L164.333 56.9127C161.734 58.41 159.264 57.7277 157.958 55.4608C156.652 53.1939 157.302 50.7149 159.902 49.2177L168.948 44.0073L167.87 42.1356L158.823 47.3459Z" fill="black"></path> <path d="M164.833 61.2636C163.97 61.7826 163.251 62.4301 162.707 63.2213C161.763 64.5526 161.08 66.6572 162.053 69.5455C163.357 73.4118 166.245 74.844 168.747 74.0007C171.522 73.0655 171.808 70.2336 171.632 67.5323C171.395 64.8009 171.234 62.1451 173.031 61.5395C174.396 61.0795 176.068 61.9087 176.873 64.2967C177.463 66.0479 177.164 67.2632 176.757 68.0843C176.485 68.5557 176.16 68.9439 175.751 69.2337L176.441 71.2805C177.191 70.7998 177.804 70.2134 178.295 69.4907C179.118 68.2508 179.711 66.3287 178.806 63.6451C177.618 60.1199 174.729 58.6877 172.341 59.4927C168.816 60.6809 169.46 64.7695 169.615 67.9338C169.705 69.8536 169.49 71.4709 168.057 71.9539C166.579 72.4522 164.906 71.623 163.986 68.8939C163.335 66.9608 163.679 65.5783 164.253 64.6505C164.577 64.1105 165.009 63.6613 165.523 63.3104L164.833 61.2636Z" fill="black"></path> </svg> 