<?xml version="1.0" encoding="UTF-8"?> <svg xmlns="http://www.w3.org/2000/svg" width="67" height="67" viewBox="0 0 67 67" fill="none"> <path d="M64.8593 61.0264L48.9132 44.4416C53.0132 39.5677 55.2597 33.4353 55.2597 27.0512C55.2597 12.1354 43.1243 0 28.2084 0C13.2926 0 1.15723 12.1354 1.15723 27.0512C1.15723 41.967 13.2926 54.1024 28.2084 54.1024C33.8081 54.1024 39.1442 52.4135 43.7064 49.2074L59.7737 65.918C60.4453 66.6154 61.3485 67 62.3165 67C63.2327 67 64.1019 66.6507 64.7617 66.0156C66.1637 64.6665 66.2084 62.4295 64.8593 61.0264ZM28.2084 7.05684C39.2336 7.05684 48.2028 16.0261 48.2028 27.0512C48.2028 38.0764 39.2336 47.0456 28.2084 47.0456C17.1833 47.0456 8.21407 38.0764 8.21407 27.0512C8.21407 16.0261 17.1833 7.05684 28.2084 7.05684Z" fill="black"></path> </svg> 