<?xml version="1.0" encoding="UTF-8"?> <svg xmlns="http://www.w3.org/2000/svg" width="67" height="67" viewBox="0 0 67 67" fill="none"> <g clip-path="url(#clip0)"> <path d="M11.1321 59.5321C10.8888 59.2886 10.5512 59.1487 10.207 59.1487C9.86287 59.1487 9.52525 59.2886 9.28186 59.5321C9.03846 59.7756 8.89844 60.1131 8.89844 60.4573C8.89844 60.8014 9.03833 61.1391 9.28186 61.3823C9.52525 61.6257 9.86287 61.7659 10.207 61.7659C10.5512 61.7659 10.8888 61.6258 11.1321 61.3823C11.3755 61.1391 11.5156 60.8014 11.5156 60.4573C11.5156 60.1131 11.3756 59.7755 11.1321 59.5321Z" fill="black"></path> <path d="M61.4418 23.9391C61.1984 23.6956 60.8621 23.5557 60.5166 23.5557C60.1724 23.5557 59.8348 23.6956 59.5914 23.9391C59.3482 24.1825 59.208 24.5201 59.208 24.8643C59.208 25.2084 59.348 25.546 59.5914 25.7893C59.8348 26.0327 60.1724 26.1729 60.5166 26.1729C60.8621 26.1729 61.1984 26.0328 61.4418 25.7893C61.6864 25.546 61.8264 25.2084 61.8264 24.8643C61.8264 24.5201 61.6864 24.1825 61.4418 23.9391Z" fill="black"></path> <path d="M66.616 0.383287C66.3705 0.137926 66.0376 0 65.6904 0L33.4998 0.00170117C32.7772 0.00170117 32.1913 0.587689 32.1913 1.31029V5.05248L19.7873 8.37618C19.0892 8.56331 18.6749 9.28081 18.862 9.97881L25.2907 33.9708L19.7293 39.5322C19.0215 38.4987 17.8331 37.819 16.4887 37.819H3.92663C1.76195 37.819 0.000976563 39.5801 0.000976563 41.7447V63.0742C0.000976562 65.2389 1.76195 67 3.92663 67H16.4889C18.3278 67 19.8749 65.7286 20.2988 64.019L21.8548 65.3759C23.0559 66.4233 24.5948 67.0001 26.1886 67.0001H65.6907C66.4133 67.0001 66.9993 66.4141 66.9993 65.6915V1.30859C66.999 0.961555 66.8614 0.628648 66.616 0.383287ZM17.7972 63.0744C17.7972 63.7958 17.2102 64.3829 16.4886 64.3829H3.9265C3.20494 64.3829 2.6179 63.7959 2.6179 63.0744V41.7448C2.6179 41.0232 3.20494 40.4362 3.9265 40.4362H8.89902V55.5105C8.89902 56.2332 9.48501 56.8191 10.2076 56.8191C10.9302 56.8191 11.5162 56.2332 11.5162 55.5105V40.4362H16.4887C17.2103 40.4362 17.7973 41.0232 17.7973 41.7448V63.0744H17.7972ZM21.7286 10.5655L32.1913 7.76192V12.6109L31.3143 12.8459C30.9789 12.9358 30.6933 13.155 30.5197 13.4556C30.3462 13.7562 30.2991 14.1133 30.389 14.4486C30.8919 16.3252 29.7742 18.261 27.8976 18.7639C27.5619 18.854 27.2757 19.0735 27.1023 19.3748C26.929 19.6759 26.8822 20.0337 26.9729 20.3692L32.0737 39.2572H29.4473L28.0939 33.9621C28.0508 33.7935 27.9754 33.6382 27.8745 33.5031L21.7286 10.5655ZM32.1913 18.612V29.654L29.8046 20.8165C30.8016 20.3017 31.6175 19.5314 32.1913 18.612ZM50.9911 64.3828H26.1883C25.2271 64.3828 24.2989 64.035 23.5745 63.4033L20.4144 60.6473V42.5485L26.1274 36.8355L27.1636 40.8895C27.3117 41.4688 27.8335 41.874 28.4314 41.874L54.1588 41.8755C55.1691 41.8755 55.9909 42.6973 55.9909 43.7076C55.9909 44.7178 55.1691 45.5396 54.1588 45.5396H40.9761C40.2535 45.5396 39.6675 46.1256 39.6675 46.8482C39.6675 47.5708 40.2535 48.1568 40.9761 48.1568H58.2547C59.265 48.1568 60.0868 48.9786 60.0868 49.9888C60.0868 50.999 59.265 51.8208 58.2547 51.8208H40.9761C40.2535 51.8208 39.6675 52.4068 39.6675 53.1294C39.6675 53.852 40.2535 54.438 40.9761 54.438H55.4547C56.465 54.438 57.2868 55.2598 57.2868 56.2701C57.2868 57.2803 56.465 58.1021 55.4547 58.1021H40.9761C40.2535 58.1021 39.6675 58.6881 39.6675 59.4107C39.6675 60.1333 40.2535 60.7193 40.9761 60.7193H50.9911C52.0014 60.7193 52.8232 61.5411 52.8232 62.5513C52.823 63.561 52.0012 64.3828 50.9911 64.3828ZM64.3821 64.3828H64.382H55.044C55.2977 63.8237 55.4402 63.2038 55.4402 62.5508C55.4402 61.8978 55.2977 61.2779 55.044 60.7188H55.4547C57.908 60.7188 59.9038 58.7229 59.9038 56.2697C59.9038 55.5541 59.733 54.878 59.4315 54.2784C61.3154 53.761 62.7037 52.0343 62.7037 49.9885C62.7037 48.9961 62.3768 48.0787 61.8255 47.338V30.7529C61.8255 30.0303 61.2395 29.4443 60.5169 29.4443C59.7943 29.4443 59.2083 30.0303 59.2083 30.7529V45.6436C58.9008 45.5762 58.5819 45.5396 58.2545 45.5396H58.2115C58.4653 44.9804 58.6078 44.3605 58.6078 43.7076C58.6078 41.2542 56.6119 39.2585 54.1587 39.2585H52.0551C54.2888 38.3006 55.8575 36.0804 55.8575 33.5C55.8575 30.0468 53.0482 27.2373 49.595 27.2373C46.1419 27.2373 43.3324 30.0468 43.3324 33.5C43.3324 36.0804 44.9013 38.3006 47.1348 39.2585H39.9817V14.3766C42.3193 13.8672 44.1639 12.0227 44.6732 9.6849H54.5166C55.0259 12.0227 56.8705 13.8672 59.2082 14.3766V18.445C59.2082 19.1676 59.7942 19.7536 60.5168 19.7536C61.2394 19.7536 61.8254 19.1676 61.8254 18.445V13.2083C61.8254 12.4857 61.2394 11.8997 60.5168 11.8997C58.5739 11.8997 56.9935 10.319 56.9935 8.37631C56.9935 7.6537 56.4075 7.06771 55.6849 7.06771H43.505C42.7824 7.06771 42.1965 7.6537 42.1965 8.37631C42.1965 10.3192 40.6159 11.8997 38.6732 11.8997C37.9506 11.8997 37.3646 12.4857 37.3646 13.2083V39.2583H34.8087V2.61863L64.3821 2.61719V64.3828ZM49.5952 37.1455C47.5851 37.1455 45.9499 35.5101 45.9499 33.5001C45.9499 31.4901 47.5852 29.8547 49.5952 29.8547C51.6052 29.8547 53.2406 31.49 53.2406 33.5C53.2406 35.51 51.6054 37.1455 49.5952 37.1455Z" fill="black"></path> </g> <defs> <clipPath id="clip0"> <rect width="67" height="67" fill="white"></rect> </clipPath> </defs> </svg> 