<?xml version="1.0" encoding="UTF-8"?> <svg xmlns="http://www.w3.org/2000/svg" width="148" height="146" viewBox="0 0 148 146" fill="none"> <path d="M38.6306 98.0285C39.2522 97.5989 39.7594 97.0801 40.1288 96.462C40.7721 95.4206 41.1835 93.8127 40.3173 91.6972C39.1577 88.8654 36.9273 87.9309 35.0949 88.6812C33.0627 89.5134 32.9831 91.6466 33.2435 93.6601C33.5509 95.6933 33.7977 97.6734 32.4817 98.2123C31.4822 98.6215 30.1909 98.0805 29.4747 96.3314C28.9495 95.0488 29.1158 94.1249 29.3814 93.491C29.5623 93.1252 29.7871 92.8191 30.0793 92.5828L29.4655 91.0836C28.9272 91.4791 28.4964 91.9472 28.1634 92.5115C27.6064 93.4787 27.254 94.9456 28.0588 96.9112C29.1161 99.4931 31.3465 100.428 33.0956 99.7115C35.6775 98.6542 35.001 95.6246 34.7345 93.2636C34.5757 91.8309 34.6594 90.6101 35.7088 90.1804C36.7916 89.7371 38.0829 90.2781 38.9014 92.277C39.4812 93.6929 39.2891 94.744 38.9039 95.4658C38.6867 95.8854 38.3855 96.2422 38.0168 96.5293L38.6306 98.0285Z" fill="black"></path> <path d="M31.7557 88.1132C35.6 87.6679 38.0524 84.5932 37.6153 80.8204C37.3274 78.335 35.9471 76.9004 34.6215 76.0936C33.8599 75.6201 33.0076 75.302 32.0626 75.1216L32.249 76.7308C32.9018 76.8908 33.4913 77.1305 34.0217 77.4858C34.9092 78.1078 35.8821 79.1548 36.0955 80.9965C36.427 83.8574 34.6268 86.1498 31.5693 86.504C28.5117 86.8582 26.2351 85.0381 25.9037 82.1773C25.6965 80.3892 26.3349 79.1737 27.0051 78.3894C27.4044 77.9263 27.8877 77.5623 28.4151 77.2656L28.2287 75.6564C27.4173 76.0041 26.694 76.4865 26.0946 77.0996C25.0559 78.144 24.0918 79.8322 24.3839 82.3534C24.8209 86.1261 27.9114 88.5586 31.7557 88.1132Z" fill="black"></path> <path d="M36.8369 74.1804L37.1026 72.5824L32.486 71.8149L33.0321 68.5299L38.1506 66.2789L38.4605 64.4145L33.135 66.8136C33.0423 64.6268 31.7989 63.2157 29.9523 62.9087C27.7505 62.5427 25.7654 63.9461 25.2931 66.7871L24.4075 72.114L36.8369 74.1804ZM30.9767 71.5639L26.1825 70.7669L26.8024 67.0381C27.1301 65.0671 28.2661 64.2706 29.6866 64.5068C31.1071 64.743 31.9243 65.8642 31.5966 67.8351L30.9767 71.5639Z" fill="black"></path> <path d="M32.7403 61.4347C36.2395 63.0876 39.9462 61.7728 41.5683 58.3386C43.1828 54.9207 41.8516 51.2064 38.3524 49.5535C34.8531 47.9006 31.1387 49.2317 29.5243 52.6496C27.9022 56.0838 29.241 59.7819 32.7403 61.4347ZM33.4322 59.9699C30.649 58.6553 29.6777 55.9072 30.9077 53.3031C32.1378 50.699 34.8773 49.7037 37.6605 51.0183C40.4436 52.3329 41.4149 55.081 40.1849 57.6851C38.9548 60.2892 36.2153 61.2845 33.4322 59.9699Z" fill="black"></path> <path d="M44.6715 52.2308L49.8535 45.8887L48.6687 44.9206L44.5117 50.0083L35.9394 43.004L34.9144 44.2585L44.6715 52.2308Z" fill="black"></path> <path d="M49.5645 46.5432L55.786 41.2169L54.7909 40.0547L49.8001 44.3274L42.6008 35.9181L41.3702 36.9716L49.5645 46.5432Z" fill="black"></path> <path d="M58.8617 39.5496L62.6989 37.9956C66.2359 36.5631 67.7547 32.9767 66.4236 29.6901C65.0926 26.4034 61.5062 24.8845 57.9692 26.317L54.132 27.871L58.8617 39.5496ZM59.7889 37.5234L56.2078 28.681L58.5435 27.7351C61.2797 26.627 63.8748 27.7122 64.9221 30.2982C65.9694 32.8841 64.8608 35.4693 62.1246 36.5775L59.7889 37.5234Z" fill="black"></path> <path d="M67.5934 29.4085C67.9956 33.2576 71.0426 35.7443 74.8201 35.3496C78.5796 34.9567 81.0645 31.8918 80.6622 28.0427C80.26 24.1937 77.1951 21.7088 73.4355 22.1017C69.6581 22.4965 67.1911 25.5595 67.5934 29.4085ZM69.2046 29.2402C68.8847 26.1788 70.7302 23.9228 73.5946 23.6234C76.459 23.3241 78.7311 25.1498 79.051 28.2111C79.3709 31.2725 77.5254 33.5285 74.661 33.8279C71.7966 34.1272 69.5245 32.3015 69.2046 29.2402Z" fill="black"></path> <path d="M83.1925 21.854L83.0802 34.7587L85.8866 35.4058L90.5662 25.1244L91.0047 25.2255L90.71 36.518L93.5164 37.165L99.066 25.514L97.3997 25.1298L92.6323 35.3911L92.1938 35.2899L92.4009 23.9772L89.8576 23.3908L85.0902 33.652L84.6517 33.5509L84.8587 22.2382L83.1925 21.854Z" fill="black"></path> <path d="M95.9086 38.244L97.3041 39.067L102.698 30.1494L102.776 29.9861L102.807 30.0047L102.608 42.2964L104.611 43.5075L111.132 32.7263L109.746 31.8878L104.342 40.8208L104.265 40.9842L104.234 40.9656L104.432 28.6738L102.43 27.4628L95.9086 38.244Z" fill="black"></path> <path d="M112.328 44.0918C117.074 48.5597 120.823 53.9785 123.331 59.9942C125.84 66.0099 127.051 72.4871 126.885 79.0027C126.719 85.5183 125.181 91.9256 122.37 97.8062C119.56 103.687 115.54 108.908 110.574 113.129C105.608 117.35 99.8071 120.476 93.5505 122.303C87.294 124.129 80.7225 124.615 74.2653 123.729C67.8082 122.842 61.6107 120.604 56.0778 117.159C50.5448 113.714 45.8009 109.14 42.1559 103.737" stroke="black"></path> </svg> 